<?xml version="1.0" ?><svg viewBox="0 0 500 500" xmlns="http://www.w3.org/2000/svg"><defs><style>.cls-1{fill:#ebbc00;}.cls-1,.cls-10,.cls-11,.cls-12,.cls-15,.cls-16,.cls-2,.cls-4,.cls-6,.cls-7,.cls-8,.cls-9{stroke:#000;stroke-miterlimit:10;}.cls-1,.cls-10,.cls-11,.cls-12,.cls-15,.cls-2,.cls-4,.cls-6,.cls-9{stroke-width:5px;}.cls-2{fill:#2d2b2b;}.cls-3,.cls-6{fill:#1e1e1e;}.cls-14,.cls-4{fill:#fff;}.cls-5{opacity:0.1;}.cls-7{fill:#595757;}.cls-16,.cls-7,.cls-8{stroke-width:2.5px;}.cls-8{fill:#3e3a39;}.cls-9{fill:#f7d500;}.cls-10{fill:#c21f1b;}.cls-11{fill:#479d23;}.cls-12{fill:#0081c8;}.cls-13{fill:#050505;}.cls-15,.cls-16{fill:none;}</style></defs><title/><g data-name="图层 1" id="图层_1"><path class="cls-1" d="M351,172.24a9.93,9.93,0,0,0-5.68-5.53L312.73,154.4a20.42,20.42,0,0,0-16.71,1l-8.34,4.38H212.32L204,155.41a20.42,20.42,0,0,0-16.71-1L154.72,166.7a9.93,9.93,0,0,0-5.68,5.53l-2.53,6.19v34.35h207V178.43Z"/><path class="cls-2" d="M360.11,184.35a11.25,11.25,0,0,0-6.62-5.92L315.15,165.6a15.54,15.54,0,0,0-11.82.81,24.3,24.3,0,0,1-10.74,2.68H207.41a24.3,24.3,0,0,1-10.74-2.68,15.54,15.54,0,0,0-11.82-.81l-38.34,12.83a11.24,11.24,0,0,0-6.62,5.91c-11.67,25-66.21,148.77-9.91,162a10.22,10.22,0,0,0,9.54-2.75L180.07,303a18.82,18.82,0,0,1,13.31-5.51H306.62A18.82,18.82,0,0,1,319.93,303l40.54,40.54a10.22,10.22,0,0,0,9.54,2.75C426.32,333.11,371.78,209.37,360.11,184.35Z"/><path class="cls-3" d="M201.59,170.9l19.94,22.85a6.56,6.56,0,0,0,4.94,2.25h47.22a6.56,6.56,0,0,0,4.94-2.25l19.94-22.85c.32-.36.66-.71,1-1h-99C200.93,170.2,201.27,170.54,201.59,170.9Z"/><circle class="cls-4" cx="230.1" cy="211.32" r="6.65"/><circle class="cls-4" cx="269.9" cy="211.32" r="6.65"/><circle class="cls-5" cx="177.02" cy="211.48" r="27.15"/><circle class="cls-5" cx="289.05" cy="256.03" r="27.15"/><circle class="cls-6" cx="177.02" cy="211.48" r="22.23"/><circle class="cls-5" cx="213.12" cy="258.76" r="24.01"/><circle class="cls-7" cx="177.02" cy="211.48" r="15.58"/><circle class="cls-8" cx="177.02" cy="211.48" r="9.09"/><circle class="cls-6" cx="289.05" cy="256.03" r="22.23"/><circle class="cls-7" cx="289.05" cy="256.03" r="15.58"/><circle class="cls-8" cx="289.05" cy="256.03" r="9.09"/><path class="cls-6" d="M226.05,252.71h-6.87v-6.87a6.06,6.06,0,0,0-12.12,0v6.87h-6.87a6.06,6.06,0,1,0,0,12.12h6.87v6.87a6.06,6.06,0,0,0,12.12,0v-6.87h6.87a6.06,6.06,0,1,0,0-12.12Z"/><rect class="cls-9" height="19.6" rx="9.8" ry="9.8" width="19.6" x="313.17" y="181.51"/><rect class="cls-10" height="19.6" rx="9.8" ry="9.8" transform="translate(554.64 -131.67) rotate(90)" width="19.6" x="333.35" y="201.68"/><rect class="cls-11" height="19.6" rx="9.8" ry="9.8" transform="translate(645.95 463.32) rotate(180)" width="19.6" x="313.17" y="221.86"/><rect class="cls-12" height="19.6" rx="9.8" ry="9.8" transform="translate(91.31 514.28) rotate(-90)" width="19.6" x="293" y="201.68"/><circle class="cls-13" cx="250.08" cy="183.93" r="10.08"/><path class="cls-14" d="M252.79,178.57l-8.07,8.07a1.88,1.88,0,0,0,2.65,2.65l8.07-8.07a1.88,1.88,0,0,0-2.65-2.65Z"/><path class="cls-14" d="M255.44,186.64l-8.07-8.07a1.88,1.88,0,0,0-2.65,2.65l8.07,8.07a1.88,1.88,0,0,0,2.65-2.65Z"/><path class="cls-15" d="M360.11,184.68a11.25,11.25,0,0,0-6.62-5.92l-38.34-12.83a15.54,15.54,0,0,0-11.82.81,24.3,24.3,0,0,1-10.74,2.68H207.41a24.3,24.3,0,0,1-10.74-2.68,15.54,15.54,0,0,0-11.82-.81l-38.34,12.83a11.24,11.24,0,0,0-6.62,5.91c-11.67,25-66.21,148.77-9.91,162a10.22,10.22,0,0,0,9.54-2.75l40.54-40.54a18.82,18.82,0,0,1,13.31-5.51H306.62a18.82,18.82,0,0,1,13.31,5.51l40.54,40.54a10.22,10.22,0,0,0,9.54,2.75C426.32,333.45,371.78,209.71,360.11,184.68Z"/><line class="cls-16" x1="212.32" x2="212.32" y1="159.79" y2="169.09"/><line class="cls-16" x1="287.68" x2="287.68" y1="159.79" y2="169.09"/></g></svg>